{"accessors":[{"bufferView":2,"byteOffset":0,"componentType":5126,"count":19476,"max":[0.1939721554517746,0.08919350802898407,0.06190747767686844,1],"min":[0.1939721554517746,0.08919350802898407,0.06190747767686844,1],"name":"accessor_color_m0-PolyPaper20_-16196","type":"VEC4"},{"bufferView":2,"byteOffset":311616,"componentType":5126,"count":120,"max":[1,1,1,1],"min":[1,1,1,1],"name":"accessor_color_m1-PolyGlass24_-16202","type":"VEC4"},{"bufferView":2,"byteOffset":313536,"componentType":5126,"count":1468,"max":[0.1939721554517746,0.08919350802898407,0.06190747767686844,1],"min":[0.1939721554517746,0.08919350802898407,0.06190747767686844,1],"name":"accessor_color_m2-PolyPaper20_-16208","type":"VEC4"},{"bufferView":0,"byteOffset":0,"componentType":5123,"count":29190,"max":[19475],"min":[0],"name":"accessor_indices_0_m0-PolyPaper20_-16196","type":"SCALAR"},{"bufferView":0,"byteOffset":58380,"componentType":5123,"count":180,"max":[119],"min":[0],"name":"accessor_indices_0_m1-PolyGlass24_-16202","type":"SCALAR"},{"bufferView":0,"byteOffset":58740,"componentType":5123,"count":2202,"max":[1467],"min":[0],"name":"accessor_indices_0_m2-PolyPaper20_-16208","type":"SCALAR"},{"bufferView":1,"byteOffset":233712,"componentType":5126,"count":19476,"max":[1,1,1],"min":[-1,-1,-1],"name":"accessor_normal_m0-PolyPaper20_-16196","type":"VEC3"},{"bufferView":1,"byteOffset":468864,"componentType":5126,"count":120,"max":[0.9872653,0.9648237,0.957862],"min":[-0.9895629,-0.9645333,-0.9576901],"name":"accessor_normal_m1-PolyGlass24_-16202","type":"VEC3"},{"bufferView":1,"byteOffset":487920,"componentType":5126,"count":1468,"max":[0.9998515,0.9926884,0.9995515],"min":[-0.9999241,-0.994158,-0.999593],"name":"accessor_normal_m2-PolyPaper20_-16208","type":"VEC3"},{"bufferView":1,"byteOffset":0,"componentType":5126,"count":19476,"max":[0.3700557,1.399914,0.3699415],"min":[-0.2399446,1.073466,-0.3600586],"name":"accessor_position_m0-PolyPaper20_-16196","type":"VEC3"},{"bufferView":1,"byteOffset":467424,"componentType":5126,"count":120,"max":[-0.1273271,1.131527,0.2368271],"min":[-0.1651853,1.097191,-0.2554759],"name":"accessor_position_m1-PolyGlass24_-16202","type":"VEC3"},{"bufferView":1,"byteOffset":470304,"componentType":5126,"count":1468,"max":[0.3338552,1.405456,0.3741154],"min":[-0.2411469,1.082327,-0.3252],"name":"accessor_position_m2-PolyPaper20_-16208","type":"VEC3"}],"asset":{"copyright":"Unknown","generator":"glTF 1-to-2 Upgrader for Google Blocks","version":"2.0"},"bufferViews":[{"buffer":0,"byteLength":63144,"byteOffset":0,"name":"ushortBufferView","target":34963},{"buffer":0,"byteLength":505536,"byteOffset":63144,"byteStride":12,"name":"vec3BufferView","target":34962},{"buffer":0,"byteLength":337024,"byteOffset":568680,"byteStride":16,"name":"vec4BufferView","target":34962}],"buffers":[{"byteLength":905704,"name":"model","uri":"data:application/octet-stream;base64,"}],"materials":[{"alphaMode":"OPAQUE","doubleSided":false,"name":"BlocksPaper","pbrMetallicRoughness":{"baseColorFactor":[1,1,1,1],"metallicFactor":0,"roughnessFactor":0.6}},{"alphaMode":"BLEND","doubleSided":false,"name":"BlocksGlass","pbrMetallicRoughness":{"baseColorFactor":[0.2,0.2,1,0.3],"metallicFactor":1,"roughnessFactor":0.4}},{"alphaMode":"OPAQUE","doubleSided":true,"name":"BlocksGem","pbrMetallicRoughness":{"baseColorFactor":[1,0.4,1,1],"metallicFactor":0,"roughnessFactor":0.1}}],"meshes":[{"name":"mesh_m0-PolyPaper20_-16196","primitives":[{"attributes":{"COLOR_0":0,"NORMAL":6,"POSITION":9},"indices":3,"material":0,"mode":4}]},{"name":"mesh_m1-PolyGlass24_-16202","primitives":[{"attributes":{"COLOR_0":1,"NORMAL":7,"POSITION":10},"indices":4,"material":1,"mode":4}]},{"name":"mesh_m2-PolyPaper20_-16208","primitives":[{"attributes":{"COLOR_0":2,"NORMAL":8,"POSITION":11},"indices":5,"material":0,"mode":4}]}],"nodes":[{"matrix":[1,0,0,0,0,1,0,0,0,0,1,0,0,0,0,1],"mesh":0,"name":"node_MeshObject-214226944-PolyPaper20"},{"matrix":[1,0,0,0,0,1,0,0,0,0,1,0,0,0,0,1],"mesh":1,"name":"node_MeshObject357852160-PolyGlass24"},{"matrix":[1,0,0,0,0,1,0,0,0,0,1,0,0,0,0,1],"mesh":2,"name":"node_MeshObject929931264-PolyPaper20"}],"scene":0,"scenes":[{"extras":{},"name":"defaultScene","nodes":[0,1,2]}]}